<?xml version="1.0" encoding="UTF-8"?>
<svg id="Layer_2" data-name="Layer 2" xmlns="http://www.w3.org/2000/svg" viewBox="0 0 215.99 114.99">
  <defs>
    <style>
      .cls-1 {
        fill: #03234b;
        stroke-width: 0px;
      }
    </style>
  </defs>
  <g id="Logo">
    <path id="path40" class="cls-1" d="M214.35,0H57.61s.01.02.01.02C45.73.02,35.51,7.13,31.07,17.27L.13,91.8c-.08.19-.13.4-.13.63,0,.89.74,1.62,1.64,1.62h70.77c5.03,0,7.22-4.84,3.3-8.71l-25.99-24.32c-13.66-13.39-7.8-44.44,20.57-44.44h138.55c.72,0,1.33-.46,1.55-1.09l5.48-13.25c.08-.19.12-.4.12-.62,0-.9-.73-1.62-1.64-1.62h0Z"/>
    <path id="path42" class="cls-1" d="M198.74,37.93l-26.61.03c-1.79,0-3.34,1.08-3.98,2.63l-29.81,72.03c-.12.22-.19.48-.19.75,0,.89.74,1.61,1.64,1.61h9.93c12.06,0,22.47-7.31,26.81-17.68,0,0,.02,0,.03.02l23.69-57.19c.07-.19.12-.39.12-.6,0-.88-.73-1.6-1.63-1.6h0Z"/>
    <path id="path44" class="cls-1" d="M146.44,39.55c0-.9-.74-1.62-1.64-1.62h-75.43c-4.09,0-7.67,5.03-3.34,9.02l24.92,23.19s10.09,9.3,7.93,22.61c-1.91,11.72-9.9,18.89-15.69,21.47h-.02c-.14.07-.23.21-.23.36,0,.22.18.41.41.41h29.07c1.8,0,3.34-1.08,3.98-2.63l29.92-72.24c.08-.18.12-.37.12-.57h0Z"/>
  </g>
</svg>