<?xml version="1.0" encoding="UTF-8"?>
<svg id="Layer_2" data-name="Layer 2" xmlns="http://www.w3.org/2000/svg" viewBox="0 0 501.1 503.3">
  <defs>
    <style>
      .cls-1 {
        fill: #91ca06;
      }

      .cls-1, .cls-2, .cls-3, .cls-4, .cls-5, .cls-6, .cls-7, .cls-8, .cls-9, .cls-10 {
        stroke-width: 0px;
      }

      .cls-2 {
        fill: #ff7b39;
      }

      .cls-3 {
        fill: #d6d230;
      }

      .cls-4 {
        fill: #fff;
      }

      .cls-5 {
        fill: #fc9b3a;
      }

      .cls-6 {
        fill: #fb4725;
      }

      .cls-7 {
        fill: #0066b6;
      }

      .cls-8 {
        fill: #429acc;
      }

      .cls-9 {
        fill: #22b45c;
      }

      .cls-10 {
        fill: #6cbadd;
      }
    </style>
  </defs>
  <g id="Layer_1-2" data-name="Layer 1">
    <g>
      <rect class="cls-6" width="152.2" height="152.3"/>
      <rect class="cls-2" x="171.9" width="157.3" height="152.3"/>
      <rect class="cls-5" x="348.8" width="152.3" height="152.3"/>
      <rect class="cls-9" y="173.5" width="152.2" height="157.3"/>
      <rect class="cls-1" x="171.9" y="173.5" width="157.3" height="157.3"/>
      <rect class="cls-3" x="348.8" y="173.5" width="152.3" height="157.3"/>
      <rect class="cls-7" y="351" width="152.2" height="152.3"/>
      <rect class="cls-8" x="171.9" y="351" width="157.3" height="152.3"/>
      <rect class="cls-10" x="348.8" y="351" width="152.3" height="152.3"/>
    </g>
    <g>
      <polygon class="cls-4" points="65 125.7 91 125.7 91 48.7 120 48.7 120 26.7 35 26.7 35 48.7 65 48.7 65 125.7"/>
      <rect class="cls-4" x="238" y="26.7" width="26" height="99"/>
      <polygon class="cls-4" points="404 58.3 434.4 125.7 469 125.7 469 26.7 445 26.7 445 94.8 415 26.7 380 26.7 380 125.7 404 125.7 404 58.3"/>
      <polygon class="cls-4" points="121.4 201.7 89.9 201.7 60 238.1 60 201.7 34 201.7 34 300.7 60 300.7 60 260.6 91.9 300.7 124.6 300.7 79.5 248.3 121.4 201.7"/>
      <polygon class="cls-4" points="282 281.7 240 281.7 240 259.7 279 259.7 279 240.7 240 240.7 240 221.7 280 221.7 280 201.7 214 201.7 214 300.7 282 300.7 282 281.7"/>
      <path class="cls-4" d="M459,229c0-17-13.3-27.3-35.6-27.3h-39.4v99h25v-39h5.2c8.6,0,10.4,2.7,14.5,13.7l9,25.3h28l-13.3-33.7c-2.8-6.9-5.5-11.6-10-14.6,10.7-4,16.6-12.3,16.6-23.4ZM433,231c0,9.8-9.3,11.8-17.1,11.8h-6.9v-22h7.5c11.9-.1,16.5,2.8,16.5,10.2Z"/>
      <path class="cls-4" d="M105.8,453.3c-5.5,2.5-11.9,3.7-19.1,3.7-18.7,0-29.9-11.5-29.9-30.7s12.2-30.7,30.3-30.7c6.1,0,13,1.3,18.4,3.6l3.3,1.4,1.1-21.1-1.9-.6c-7.4-2.2-16.4-3.5-24.2-3.5-31.2,0-53.9,21.4-53.9,50.9.1,15.7,5.3,28.7,15.3,37.7,9.5,8.6,22.9,13.2,38.7,13.2,9.1,0,17.9-1.5,24.7-4.1l1.7-.7-1.2-20.6-3.3,1.5Z"/>
      <path class="cls-4" d="M235.9,376.7l-37.7,99h25.9l8.5-24h36.4l8.3,24h27.1l-37.8-99h-30.7ZM262.9,432.7h-24.2l12.3-33.1,11.9,33.1Z"/>
      <path class="cls-4" d="M416.6,376.7h-35.6v99h33c34.2,0,54.7-19,54.7-50.8s-18.5-48.2-52.1-48.2ZM441.9,424.9c0,20.5-10.7,31.8-30.9,31.8h-4v-61h6.4c18.4,0,28.5,10.7,28.5,29.2Z"/>
    </g>
  </g>
</svg>