<svg xmlns="http://www.w3.org/2000/svg" width="172" height="28" viewBox="0 0 172 28">
    <g fill="none" fill-rule="evenodd">
        <path fill="#FFF" d="M23.098.723h4.089v19.668h-4.089zM81.21 21.834h1.014l-1.433 2.674v1.604h-.896v-1.604l-1.482-2.674h1.055l.89 1.863zM91.845 21.834h1v4.278h-1z"/>
        <path fill="#ED1C24" d="M9.744 6.997V.62H.072v9.933c0 5.488 4.455 9.934 9.948 9.934h9.948v-9.663h-6.39a3.83 3.83 0 0 1-3.834-3.827"/>
        <path fill="#F8971D" d="M13.152 4.87V.62h-2.856v6.377a3.282 3.282 0 0 0 3.282 3.278h6.39V7.423h-4.262a2.555 2.555 0 0 1-2.554-2.553"/>
        <path fill="#F8971D" d="M16.56 2.743V.62h-2.854l-.001 4.25a2 2 0 0 0 2.002 2h4.262V4.02h-2.13a1.278 1.278 0 0 1-1.279-1.277"/>
        <path fill="#F8971D" d="M17.113.62l.005 2.123a.72.72 0 0 0 .72.719h2.13V.62h-2.855z"/>
        <path fill="#FFF" d="M23.098.721h4.089v19.668h-4.089zM41.104 6.677c.953.787 1.43 2.093 1.43 3.916v9.795h-3.902V11.54c0-.765-.102-1.353-.306-1.761-.37-.747-1.077-1.121-2.122-1.121-1.282 0-2.161.546-2.64 1.641-.247.58-.37 1.316-.37 2.215v7.873h-3.808V5.87h3.688v2.12c.488-.747.949-1.285 1.383-1.613.78-.588 1.77-.881 2.968-.881 1.499 0 2.725.394 3.679 1.18"/>
        <path fill="#FFF" fill-rule="nonzero" d="M53.364 16.438c.562-.801.843-1.837.843-3.11 0-1.778-.45-3.05-1.35-3.815a2.906 2.906 0 0 0-1.923-.694c-1.115 0-1.932.42-2.452 1.261-.52.84-.781 1.883-.781 3.13 0 1.341.264 2.416.795 3.22.53.805 1.333 1.208 2.412 1.208 1.075 0 1.895-.399 2.456-1.2m-.934-10.36a4.619 4.619 0 0 1 1.67 1.608V.748h3.862v19.64H54.26v-2.014c-.544.863-1.162 1.49-1.858 1.88-.695.393-1.56.588-2.592.588-1.702 0-3.133-.687-4.296-2.061-1.162-1.375-1.744-3.136-1.744-5.29 0-2.481.573-4.436 1.718-5.858 1.144-1.424 2.673-2.136 4.588-2.136.883 0 1.666.193 2.353.58M63.847 9.424c-.539.552-.876 1.303-1.013 2.25h6.56c-.07-1.009-.407-1.774-1.014-2.298-.608-.523-1.361-.784-2.26-.784-.978 0-1.736.277-2.273.832m5.696-3.286c1.016.455 1.855 1.173 2.518 2.152.597.865.982 1.866 1.16 3.006.103.669.144 1.63.125 2.887H62.739c.06 1.46.568 2.483 1.524 3.068.581.366 1.282.548 2.099.548.868 0 1.573-.223 2.115-.667.295-.241.557-.574.783-1h3.888c-.103.862-.573 1.74-1.412 2.627-1.305 1.415-3.132 2.121-5.48 2.121-1.938 0-3.648-.597-5.13-1.79-1.481-1.192-2.222-3.133-2.222-5.822 0-2.52.67-4.45 2.008-5.795 1.336-1.344 3.073-2.016 5.207-2.016 1.268 0 2.409.227 3.424.681M83.229 10.14c-.519-.863-1.357-1.294-2.517-1.294-1.396 0-2.353.653-2.877 1.96-.27.695-.404 1.576-.404 2.643 0 1.69.454 2.878 1.36 3.562.54.402 1.181.601 1.918.601 1.072 0 1.889-.408 2.45-1.228.563-.817.844-1.907.844-3.268.002-1.12-.256-2.112-.774-2.976m2.923-2.735c1.188 1.254 1.782 3.095 1.782 5.524 0 2.56-.581 4.513-1.742 5.858-1.16 1.342-2.656 2.014-4.484 2.014-1.166 0-2.134-.29-2.904-.868-.422-.32-.835-.787-1.24-1.4v7.579h-3.766V5.844h3.648v2.148c.412-.63.852-1.13 1.319-1.493.85-.65 1.864-.974 3.037-.974 1.712-.001 3.161.625 4.35 1.88M93.045 9.424c-.538.552-.876 1.303-1.014 2.25h6.56c-.07-1.009-.408-1.774-1.013-2.298-.609-.523-1.36-.784-2.26-.784-.977 0-1.735.277-2.273.832m5.696-3.286c1.018.455 1.855 1.173 2.518 2.152.597.865.984 1.866 1.16 3.006.102.669.144 1.63.127 2.887H91.937c.059 1.46.567 2.483 1.523 3.068.582.366 1.283.548 2.1.548.867 0 1.571-.223 2.115-.667.295-.241.559-.574.783-1h3.888c-.102.862-.573 1.74-1.413 2.627-1.303 1.415-3.13 2.121-5.478 2.121-1.936 0-3.648-.597-5.13-1.79-1.481-1.192-2.222-3.133-2.222-5.822 0-2.52.67-4.45 2.006-5.795 1.337-1.344 3.073-2.016 5.208-2.016 1.267 0 2.41.227 3.424.681"/>
        <path fill="#FFF" d="M114.845 6.677c.955.787 1.43 2.093 1.43 3.916v9.795h-3.9V11.54c0-.765-.102-1.353-.306-1.761-.372-.747-1.08-1.121-2.123-1.121-1.282 0-2.162.546-2.638 1.641-.248.58-.373 1.316-.373 2.215v7.873h-3.807V5.87h3.687v2.12c.488-.747.948-1.285 1.384-1.613.78-.588 1.77-.881 2.967-.881 1.498 0 2.726.394 3.679 1.18"/>
        <path fill="#FFF" fill-rule="nonzero" d="M127.106 16.438c.562-.801.843-1.837.843-3.11 0-1.778-.45-3.05-1.35-3.815a2.909 2.909 0 0 0-1.924-.694c-1.114 0-1.932.42-2.452 1.261-.52.84-.78 1.883-.78 3.13 0 1.341.264 2.416.794 3.22.528.805 1.334 1.208 2.413 1.208 1.076 0 1.897-.399 2.456-1.2m-.935-10.36a4.608 4.608 0 0 1 1.67 1.608V.748h3.861v19.64h-3.7v-2.014c-.544.863-1.162 1.49-1.858 1.88-.694.393-1.559.588-2.593.588-1.7 0-3.131-.687-4.295-2.061-1.161-1.375-1.743-3.136-1.743-5.29 0-2.481.572-4.436 1.716-5.858 1.145-1.424 2.675-2.136 4.591-2.136.883 0 1.667.193 2.35.58M137.588 9.424c-.538.552-.876 1.303-1.013 2.25h6.557c-.07-1.009-.407-1.774-1.014-2.298-.606-.523-1.36-.784-2.257-.784-.978 0-1.736.277-2.273.832m5.694-3.286c1.017.455 1.857 1.173 2.517 2.152.597.865.984 1.866 1.161 3.006.102.669.143 1.63.125 2.887H136.48c.06 1.46.569 2.483 1.523 3.068.582.366 1.282.548 2.1.548.865 0 1.572-.223 2.114-.667.294-.241.556-.574.782-1h3.887c-.102.862-.573 1.74-1.411 2.627-1.305 1.415-3.13 2.121-5.477 2.121-1.939 0-3.648-.597-5.13-1.79-1.48-1.192-2.222-3.133-2.222-5.822 0-2.52.67-4.45 2.007-5.795 1.336-1.344 3.072-2.016 5.207-2.016 1.265 0 2.407.227 3.422.681"/>
        <path fill="#FFF" d="M159.39 6.677c.954.787 1.43 2.093 1.43 3.916v9.795h-3.9V11.54c0-.765-.104-1.353-.307-1.761-.372-.747-1.078-1.121-2.122-1.121-1.281 0-2.162.546-2.64 1.641-.246.58-.372 1.316-.372 2.215v7.873h-3.807V5.87h3.688v2.12c.487-.747.949-1.285 1.383-1.613.781-.588 1.77-.881 2.967-.881 1.501 0 2.727.394 3.68 1.18M161.496 8.686V5.977h2.031V1.922h3.768v4.055h2.365v2.709h-2.365v7.685c0 .597.075.968.229 1.116.15.145.612.218 1.387.218a10.183 10.183 0 0 0 .75-.026v2.843l-1.803.065c-1.8.062-3.03-.249-3.687-.933-.43-.436-.642-1.107-.642-2.016V8.686h-2.033zM95.761 23.13c.207.172.31.455.31.852v2.13h-.85v-1.924a.9.9 0 0 0-.065-.383c-.081-.162-.235-.244-.462-.244-.278 0-.47.119-.573.357a1.216 1.216 0 0 0-.081.484v1.71h-.828v-3.156h.801v.46c.107-.162.207-.28.303-.351.169-.128.384-.191.644-.191.327-.001.594.084.801.256"/>
        <path fill="#FFF" fill-rule="nonzero" d="M98.429 25.253c.12-.175.183-.399.183-.676 0-.387-.098-.664-.294-.83a.633.633 0 0 0-.418-.153c-.243 0-.42.093-.533.275-.114.182-.17.41-.17.68 0 .293.056.525.171.702.115.175.291.262.527.262a.613.613 0 0 0 .534-.26M98.226 23c.149.085.269.2.362.35v-1.51h.84v4.274h-.805v-.439a1.155 1.155 0 0 1-.404.408c-.152.087-.34.128-.565.128-.37 0-.681-.148-.933-.448-.253-.297-.38-.682-.38-1.151 0-.54.126-.963.374-1.274.248-.309.582-.463.998-.463.192-.001.362.04.513.125M100.709 23.727a.852.852 0 0 0-.22.49h1.427c-.016-.22-.09-.386-.22-.5a.735.735 0 0 0-.492-.172c-.214 0-.379.06-.495.182m1.239-.714c.222.099.405.255.547.469.13.187.215.406.255.653.02.145.029.354.026.628h-2.308c.012.317.124.54.331.666.127.08.28.12.457.12.188 0 .342-.049.46-.145a.69.69 0 0 0 .17-.217h.845c-.021.188-.124.378-.307.572-.282.307-.68.46-1.192.46-.421 0-.793-.129-1.115-.387-.321-.26-.485-.682-.485-1.268 0-.547.146-.968.437-1.26.291-.293.67-.44 1.134-.44.275 0 .524.049.745.15"/>
        <path fill="#FFF" fill-rule="nonzero" d="M104.806 23.883c-.112-.188-.295-.282-.548-.282-.302 0-.511.141-.626.427-.058.151-.09.342-.09.574 0 .368.102.626.299.775a.684.684 0 0 0 .417.132c.234 0 .411-.09.533-.268.123-.178.183-.414.183-.711 0-.242-.055-.46-.168-.647m.635-.595c.259.273.386.674.386 1.202 0 .559-.125.983-.377 1.274a1.233 1.233 0 0 1-.976.438c-.254 0-.463-.062-.632-.187a1.31 1.31 0 0 1-.27-.304v1.647h-.82V22.95h.793v.467c.09-.136.187-.246.288-.325.185-.141.405-.213.66-.213.376 0 .69.137.948.409M106.941 23.727a.865.865 0 0 0-.222.49h1.428c-.016-.22-.089-.386-.22-.5a.735.735 0 0 0-.49-.172c-.214 0-.379.06-.496.182m1.24-.714c.22.099.404.255.547.469.13.187.215.406.252.653.022.145.031.354.028.628H106.7c.012.317.123.54.33.666.127.08.279.12.457.12.189 0 .343-.049.46-.145a.691.691 0 0 0 .17-.217h.845c-.02.188-.123.378-.306.572-.285.307-.682.46-1.191.46-.423 0-.795-.129-1.116-.387-.323-.26-.485-.682-.485-1.268 0-.547.146-.968.437-1.26.29-.293.667-.44 1.132-.44.277 0 .525.049.746.15"/>
        <path fill="#FFF" d="M111.683 23.13c.208.172.31.455.31.852v2.13h-.848v-1.924a.871.871 0 0 0-.067-.383c-.08-.162-.233-.244-.46-.244-.28 0-.47.119-.575.357a1.233 1.233 0 0 0-.081.484v1.71h-.829v-3.156h.803v.46c.107-.162.206-.28.301-.351.17-.128.386-.191.647-.191.325-.001.592.084.8.256"/>
        <path fill="#FFF" fill-rule="nonzero" d="M114.35 25.253c.124-.175.184-.399.184-.676 0-.387-.099-.664-.294-.83a.633.633 0 0 0-.418-.153c-.241 0-.42.093-.533.275-.113.182-.17.41-.17.68 0 .293.058.525.173.702.116.175.29.262.525.262.233.001.41-.087.534-.26M114.146 23c.152.085.273.2.366.35v-1.51h.84v4.274h-.807v-.439a1.146 1.146 0 0 1-.403.408c-.153.087-.34.128-.564.128-.37 0-.681-.148-.934-.448-.252-.297-.38-.682-.38-1.151 0-.54.126-.963.374-1.274.25-.309.582-.463.999-.463.191-.001.361.04.51.125M116.632 23.727a.847.847 0 0 0-.222.49h1.428c-.015-.22-.09-.386-.22-.5a.73.73 0 0 0-.491-.172c-.215 0-.378.06-.495.182m1.239-.714c.22.099.403.255.547.469.129.187.214.406.252.653.023.145.032.354.027.628h-2.307c.013.317.124.54.332.666.127.08.278.12.457.12.189 0 .341-.049.46-.145a.676.676 0 0 0 .169-.217h.847c-.022.188-.126.378-.309.572-.283.307-.68.46-1.19.46-.422 0-.794-.129-1.118-.387-.321-.26-.482-.682-.482-1.268 0-.547.145-.968.436-1.26.291-.293.67-.44 1.133-.44.277 0 .525.049.746.15"/>
        <path fill="#FFF" d="M121.374 23.13c.207.172.31.455.31.852v2.13h-.849v-1.924a.9.9 0 0 0-.065-.383c-.083-.162-.236-.244-.463-.244-.277 0-.47.119-.573.357a1.233 1.233 0 0 0-.08.484v1.71h-.83v-3.156h.802v.46c.106-.162.207-.28.302-.351.169-.128.385-.191.644-.191.327-.001.595.084.802.256M121.833 23.566v-.589h.44v-.882h.82v.882h.515v.59h-.514v1.672c0 .13.015.21.05.242.031.031.133.049.302.049l.08-.003c.028 0 .054 0 .083-.005v.62l-.393.014c-.39.014-.657-.054-.802-.204-.092-.094-.14-.24-.14-.438v-1.948h-.441zM128.147 23.17a.838.838 0 0 0-.499-.612 1.202 1.202 0 0 0-.49-.097c-.346 0-.63.129-.85.39-.222.26-.333.65-.333 1.173s.12.895.36 1.113c.24.218.513.328.818.328.301 0 .548-.086.74-.257a1.11 1.11 0 0 0 .353-.677h-.99v-.714h1.785v2.295h-.594l-.09-.533a2.057 2.057 0 0 1-.465.427c-.236.145-.526.215-.872.215-.568 0-1.033-.195-1.395-.587-.378-.394-.568-.935-.568-1.618 0-.693.192-1.25.574-1.666.381-.418.886-.626 1.513-.626.545 0 .983.137 1.314.412.33.278.52.621.568 1.033h-.88zM131.171 22.874a.64.64 0 0 0 .073.004v.848a3.761 3.761 0 0 0-.14-.013l-.1-.002c-.333 0-.557.11-.67.326-.063.122-.096.31-.096.563v1.51h-.834v-3.162h.79v.551c.127-.21.239-.354.334-.434a.926.926 0 0 1 .643-.191"/>
        <path fill="#FFF" fill-rule="nonzero" d="M133.41 25.268c.13-.171.196-.416.196-.733 0-.316-.065-.56-.196-.732-.128-.171-.315-.256-.558-.256-.241 0-.429.085-.56.256-.13.172-.196.416-.196.732 0 .317.065.562.196.733.13.173.318.258.56.258.243 0 .429-.086.558-.258m.664.457c-.267.33-.673.494-1.218.494-.544 0-.95-.165-1.217-.494-.268-.33-.401-.726-.401-1.19 0-.457.133-.851.401-1.185.268-.335.673-.502 1.217-.502.545 0 .952.167 1.218.502.269.334.401.728.401 1.185 0 .463-.133.86-.4 1.19"/>
        <path fill="#FFF" d="M136.664 24.084a.744.744 0 0 0-.119-.32c-.093-.129-.238-.192-.434-.192-.28 0-.471.139-.573.415-.054.146-.081.34-.081.585 0 .23.026.418.081.56.098.263.284.394.56.394.194 0 .331-.054.414-.156a.81.81 0 0 0 .149-.406h.844a1.4 1.4 0 0 1-.272.713c-.26.361-.646.542-1.155.542-.51 0-.886-.15-1.125-.453-.242-.301-.362-.691-.362-1.173 0-.542.132-.964.399-1.267.267-.301.632-.452 1.1-.452.398 0 .722.09.977.267.252.177.403.491.45.944h-.853v-.001z"/>
        <path fill="#FFF" fill-rule="nonzero" d="M138.609 23.727a.847.847 0 0 0-.221.49h1.428c-.017-.22-.09-.386-.222-.5a.728.728 0 0 0-.49-.172c-.214 0-.38.06-.495.182m1.237-.714c.222.099.406.255.55.469.129.187.213.406.252.653.022.145.03.354.027.628h-2.307c.013.317.122.54.332.666.126.08.278.12.455.12a.71.71 0 0 0 .461-.145.7.7 0 0 0 .17-.217h.844c-.02.188-.124.378-.306.572-.284.307-.68.46-1.191.46a1.73 1.73 0 0 1-1.116-.387c-.322-.26-.485-.682-.485-1.268 0-.547.146-.968.438-1.26.29-.293.669-.44 1.133-.44.274 0 .524.049.743.15"/>
        <path fill="#FFF" d="M142.556 22.874a.636.636 0 0 0 .071.004v.848c-.052-.006-.1-.01-.139-.013l-.1-.002c-.333 0-.556.11-.67.326-.063.122-.095.31-.095.563v1.51h-.835v-3.162h.79v.551c.128-.21.239-.354.335-.434.155-.127.356-.192.603-.192h.04M91.845 21.834h1v4.278h-1zM81.21 21.78h1.014l-1.433 2.675v1.604h-.896v-1.604l-1.482-2.675h1.055l.89 1.863z"/>
        <path fill="#FFF" fill-rule="nonzero" d="M83.67 25.214c.132-.172.196-.415.196-.733 0-.317-.063-.562-.196-.73-.127-.173-.314-.258-.557-.258a.667.667 0 0 0-.56.258c-.13.17-.196.413-.196.73 0 .318.066.562.196.733.131.173.318.258.56.258.243 0 .43-.086.557-.258m.665.457c-.268.33-.672.494-1.218.494-.544 0-.95-.164-1.218-.494-.267-.33-.401-.727-.401-1.19 0-.456.134-.851.401-1.186.269-.333.674-.501 1.218-.501.545 0 .95.168 1.218.501.268.335.402.73.402 1.186 0 .463-.135.86-.402 1.19"/>
        <path fill="#FFF" d="M85.856 22.895v1.907c0 .18.021.316.064.407.076.162.224.242.443.242.28 0 .474-.115.578-.343a1.25 1.25 0 0 0 .08-.491v-1.721h.842v3.164h-.806v-.447c-.009.01-.026.039-.057.087a.519.519 0 0 1-.111.127 1.118 1.118 0 0 1-.374.24 1.239 1.239 0 0 1-.426.063c-.467 0-.783-.169-.945-.505-.09-.185-.136-.46-.136-.822v-1.907h.848zM90.13 22.822l.07.004v.847a1.418 1.418 0 0 0-.14-.012 1.428 1.428 0 0 0-.097-.003c-.333 0-.557.108-.672.325-.062.122-.095.31-.095.563v1.513h-.835v-3.164h.793v.552c.127-.211.237-.355.333-.433.154-.13.356-.193.605-.193h.038"/>
        <g fill="#FFF">
            <path d="M169.573 3.545h-.332V2.243h-.48v-.28h1.29v.28h-.48v1.302zM171.77 3.545h-.31V2.223h-.005l-.295 1.322h-.325l-.29-1.322h-.003v1.322h-.309V1.964h.484l.287 1.246h.003l.285-1.246h.479v1.581z"/>
        </g>
    </g>
</svg>
